<mxfile host="app.diagrams.net" modified="2023-09-27T15:25:05.408Z" agent="Mozilla/5.0 (Windows NT 10.0; Win64; x64) AppleWebKit/537.36 (KHTML, like Gecko) Chrome/116.0.0.0 Safari/537.36" etag="UTQGUYcKCGaEeINj2Byv" version="21.8.2" type="device">
  <diagram name="Page-1" id="ztnuq1gAnb1mRWDwHI2R">
    <mxGraphModel dx="1035" dy="1625" grid="1" gridSize="10" guides="1" tooltips="1" connect="1" arrows="1" fold="1" page="1" pageScale="1" pageWidth="850" pageHeight="1100" math="0" shadow="0">
      <root>
        <mxCell id="0" />
        <mxCell id="1" parent="0" />
        <mxCell id="4vqRBLgqxBnJ8twM-hPz-1" value="&lt;b&gt;&lt;font style=&quot;font-size: 14px;&quot;&gt;Actor&lt;/font&gt;&lt;/b&gt;" style="shape=umlActor;verticalLabelPosition=bottom;verticalAlign=top;html=1;outlineConnect=0;" parent="1" vertex="1">
          <mxGeometry x="55" y="240" width="30" height="60" as="geometry" />
        </mxCell>
        <mxCell id="4vqRBLgqxBnJ8twM-hPz-2" value="&lt;b&gt;&lt;font style=&quot;font-size: 14px;&quot;&gt;Admin&lt;/font&gt;&lt;/b&gt;" style="shape=umlActor;verticalLabelPosition=bottom;verticalAlign=top;html=1;outlineConnect=0;" parent="1" vertex="1">
          <mxGeometry x="790" y="300" width="30" height="60" as="geometry" />
        </mxCell>
        <mxCell id="4vqRBLgqxBnJ8twM-hPz-5" value="&lt;b&gt;&lt;font style=&quot;font-size: 14px;&quot;&gt;Show Predictions&lt;/font&gt;&lt;/b&gt;" style="ellipse;whiteSpace=wrap;html=1;" parent="1" vertex="1">
          <mxGeometry x="535" y="500" width="170" height="80" as="geometry" />
        </mxCell>
        <mxCell id="4vqRBLgqxBnJ8twM-hPz-7" value="&lt;font style=&quot;font-size: 14px;&quot;&gt;&lt;b&gt;Data Preprocessing&lt;/b&gt;&lt;/font&gt;" style="ellipse;whiteSpace=wrap;html=1;" parent="1" vertex="1">
          <mxGeometry x="545" y="110" width="120" height="80" as="geometry" />
        </mxCell>
        <mxCell id="4vqRBLgqxBnJ8twM-hPz-9" value="&lt;font style=&quot;font-size: 14px;&quot;&gt;Generate Recommendations&lt;/font&gt;" style="ellipse;whiteSpace=wrap;html=1;" parent="1" vertex="1">
          <mxGeometry x="545" y="240" width="120" height="80" as="geometry" />
        </mxCell>
        <mxCell id="4vqRBLgqxBnJ8twM-hPz-10" value="&lt;b&gt;&lt;font style=&quot;font-size: 14px;&quot;&gt;Gather User data&lt;/font&gt;&lt;/b&gt;" style="ellipse;whiteSpace=wrap;html=1;" parent="1" vertex="1">
          <mxGeometry x="535" y="370" width="150" height="80" as="geometry" />
        </mxCell>
        <mxCell id="4vqRBLgqxBnJ8twM-hPz-20" value="&lt;font style=&quot;font-size: 24px;&quot;&gt;UML Use Case Diagram&lt;/font&gt;" style="text;html=1;align=center;verticalAlign=middle;resizable=0;points=[];autosize=1;strokeColor=none;fillColor=none;" parent="1" vertex="1">
          <mxGeometry x="365" y="-40" width="280" height="40" as="geometry" />
        </mxCell>
        <mxCell id="4vqRBLgqxBnJ8twM-hPz-21" value="&lt;b&gt;&lt;font style=&quot;font-size: 16px;&quot;&gt;By : Group 13&lt;/font&gt;&lt;/b&gt;" style="text;html=1;align=center;verticalAlign=middle;resizable=0;points=[];autosize=1;strokeColor=none;fillColor=none;" parent="1" vertex="1">
          <mxGeometry x="55" y="570" width="130" height="30" as="geometry" />
        </mxCell>
        <mxCell id="uR6mbqUO0TgPEEzMGg1f-4" value="" style="endArrow=classic;html=1;rounded=0;entryX=0.007;entryY=0.65;entryDx=0;entryDy=0;entryPerimeter=0;exitX=0.75;exitY=0.1;exitDx=0;exitDy=0;exitPerimeter=0;" parent="1" target="Kb4y-Z-YRgG1aq_VT0uE-1" edge="1" source="4vqRBLgqxBnJ8twM-hPz-1">
          <mxGeometry width="50" height="50" relative="1" as="geometry">
            <mxPoint x="100" y="340" as="sourcePoint" />
            <mxPoint x="230" y="220" as="targetPoint" />
          </mxGeometry>
        </mxCell>
        <mxCell id="uR6mbqUO0TgPEEzMGg1f-7" value="" style="endArrow=classic;html=1;rounded=0;exitX=0;exitY=1;exitDx=0;exitDy=0;exitPerimeter=0;" parent="1" target="4vqRBLgqxBnJ8twM-hPz-10" edge="1" source="4vqRBLgqxBnJ8twM-hPz-2">
          <mxGeometry width="50" height="50" relative="1" as="geometry">
            <mxPoint x="860" y="390" as="sourcePoint" />
            <mxPoint x="690" y="430" as="targetPoint" />
          </mxGeometry>
        </mxCell>
        <mxCell id="uR6mbqUO0TgPEEzMGg1f-8" value="" style="endArrow=classic;html=1;rounded=0;entryX=1;entryY=0.5;entryDx=0;entryDy=0;exitX=0.5;exitY=0.5;exitDx=0;exitDy=0;exitPerimeter=0;" parent="1" target="4vqRBLgqxBnJ8twM-hPz-9" edge="1" source="4vqRBLgqxBnJ8twM-hPz-2">
          <mxGeometry width="50" height="50" relative="1" as="geometry">
            <mxPoint x="870" y="330" as="sourcePoint" />
            <mxPoint x="700" y="410" as="targetPoint" />
          </mxGeometry>
        </mxCell>
        <mxCell id="uR6mbqUO0TgPEEzMGg1f-10" value="" style="endArrow=classic;html=1;rounded=0;entryX=0.983;entryY=0.638;entryDx=0;entryDy=0;entryPerimeter=0;exitX=0.5;exitY=0;exitDx=0;exitDy=0;exitPerimeter=0;" parent="1" target="4vqRBLgqxBnJ8twM-hPz-7" edge="1" source="4vqRBLgqxBnJ8twM-hPz-2">
          <mxGeometry width="50" height="50" relative="1" as="geometry">
            <mxPoint x="870" y="290" as="sourcePoint" />
            <mxPoint x="740" y="138" as="targetPoint" />
          </mxGeometry>
        </mxCell>
        <mxCell id="vRQ700bo3YF1591QnHRF-2" value="&lt;font style=&quot;font-size: 14px;&quot;&gt;&lt;b&gt;Emotion Input&lt;/b&gt;&lt;/font&gt;" style="ellipse;whiteSpace=wrap;html=1;" parent="1" vertex="1">
          <mxGeometry x="240" y="370" width="145" height="80" as="geometry" />
        </mxCell>
        <mxCell id="vRQ700bo3YF1591QnHRF-3" value="" style="endArrow=classic;html=1;rounded=0;entryX=0;entryY=0.5;entryDx=0;entryDy=0;exitX=0.5;exitY=0.5;exitDx=0;exitDy=0;exitPerimeter=0;" parent="1" target="vRQ700bo3YF1591QnHRF-2" edge="1" source="4vqRBLgqxBnJ8twM-hPz-1">
          <mxGeometry width="50" height="50" relative="1" as="geometry">
            <mxPoint x="100" y="390" as="sourcePoint" />
            <mxPoint x="220" y="290" as="targetPoint" />
          </mxGeometry>
        </mxCell>
        <mxCell id="vRQ700bo3YF1591QnHRF-9" value="" style="endArrow=classic;html=1;rounded=0;entryX=0;entryY=0.5;entryDx=0;entryDy=0;exitX=0.5;exitY=0.5;exitDx=0;exitDy=0;exitPerimeter=0;" parent="1" target="Kb4y-Z-YRgG1aq_VT0uE-2" edge="1" source="4vqRBLgqxBnJ8twM-hPz-1">
          <mxGeometry width="50" height="50" relative="1" as="geometry">
            <mxPoint x="100" y="360" as="sourcePoint" />
            <mxPoint x="210" y="350" as="targetPoint" />
          </mxGeometry>
        </mxCell>
        <mxCell id="Kb4y-Z-YRgG1aq_VT0uE-1" value="&lt;b&gt;&lt;font style=&quot;font-size: 14px;&quot;&gt;User Interface&lt;/font&gt;&lt;/b&gt;" style="ellipse;whiteSpace=wrap;html=1;" vertex="1" parent="1">
          <mxGeometry x="240" y="120" width="150" height="80" as="geometry" />
        </mxCell>
        <mxCell id="Kb4y-Z-YRgG1aq_VT0uE-2" value="&lt;b&gt;&lt;font style=&quot;font-size: 14px;&quot;&gt;Listen to Music&lt;/font&gt;&lt;/b&gt;" style="ellipse;whiteSpace=wrap;html=1;" vertex="1" parent="1">
          <mxGeometry x="235" y="240" width="150" height="80" as="geometry" />
        </mxCell>
        <mxCell id="Kb4y-Z-YRgG1aq_VT0uE-7" value="" style="endArrow=classic;html=1;rounded=0;entryX=1;entryY=0;entryDx=0;entryDy=0;" edge="1" parent="1" source="4vqRBLgqxBnJ8twM-hPz-2" target="4vqRBLgqxBnJ8twM-hPz-5">
          <mxGeometry width="50" height="50" relative="1" as="geometry">
            <mxPoint x="740" y="520" as="sourcePoint" />
            <mxPoint x="790" y="470" as="targetPoint" />
          </mxGeometry>
        </mxCell>
        <mxCell id="Kb4y-Z-YRgG1aq_VT0uE-9" value="&lt;font style=&quot;font-size: 14px;&quot;&gt;&lt;b&gt;Mode Selection&lt;/b&gt;&lt;/font&gt;" style="ellipse;whiteSpace=wrap;html=1;" vertex="1" parent="1">
          <mxGeometry x="245" y="510" width="145" height="80" as="geometry" />
        </mxCell>
        <mxCell id="Kb4y-Z-YRgG1aq_VT0uE-10" value="" style="endArrow=classic;html=1;rounded=0;entryX=0;entryY=0.5;entryDx=0;entryDy=0;exitX=1;exitY=0.5;exitDx=0;exitDy=0;" edge="1" parent="1" source="vRQ700bo3YF1591QnHRF-2" target="4vqRBLgqxBnJ8twM-hPz-10">
          <mxGeometry width="50" height="50" relative="1" as="geometry">
            <mxPoint x="460" y="400" as="sourcePoint" />
            <mxPoint x="510" y="350" as="targetPoint" />
          </mxGeometry>
        </mxCell>
        <mxCell id="Kb4y-Z-YRgG1aq_VT0uE-12" value="" style="endArrow=classic;html=1;rounded=0;entryX=0.034;entryY=0.25;entryDx=0;entryDy=0;entryPerimeter=0;" edge="1" parent="1" target="Kb4y-Z-YRgG1aq_VT0uE-9">
          <mxGeometry width="50" height="50" relative="1" as="geometry">
            <mxPoint x="85" y="300" as="sourcePoint" />
            <mxPoint x="250" y="500" as="targetPoint" />
          </mxGeometry>
        </mxCell>
        <mxCell id="Kb4y-Z-YRgG1aq_VT0uE-13" value="" style="endArrow=classic;html=1;rounded=0;entryX=0.906;entryY=0.879;entryDx=0;entryDy=0;exitX=0.01;exitY=0.393;exitDx=0;exitDy=0;exitPerimeter=0;entryPerimeter=0;" edge="1" parent="1" source="4vqRBLgqxBnJ8twM-hPz-5" target="Kb4y-Z-YRgG1aq_VT0uE-2">
          <mxGeometry width="50" height="50" relative="1" as="geometry">
            <mxPoint x="395" y="420" as="sourcePoint" />
            <mxPoint x="545" y="420" as="targetPoint" />
          </mxGeometry>
        </mxCell>
        <mxCell id="Kb4y-Z-YRgG1aq_VT0uE-14" value="" style="endArrow=classic;html=1;rounded=0;entryX=0.043;entryY=0.695;entryDx=0;entryDy=0;entryPerimeter=0;exitX=1.014;exitY=0.313;exitDx=0;exitDy=0;exitPerimeter=0;" edge="1" parent="1" source="Kb4y-Z-YRgG1aq_VT0uE-9" target="4vqRBLgqxBnJ8twM-hPz-10">
          <mxGeometry width="50" height="50" relative="1" as="geometry">
            <mxPoint x="530" y="540" as="sourcePoint" />
            <mxPoint x="381" y="320" as="targetPoint" />
          </mxGeometry>
        </mxCell>
        <mxCell id="Kb4y-Z-YRgG1aq_VT0uE-15" value="" style="endArrow=classic;html=1;rounded=0;entryX=1;entryY=0.5;entryDx=0;entryDy=0;exitX=0.039;exitY=0.32;exitDx=0;exitDy=0;exitPerimeter=0;" edge="1" parent="1" source="4vqRBLgqxBnJ8twM-hPz-9" target="Kb4y-Z-YRgG1aq_VT0uE-1">
          <mxGeometry width="50" height="50" relative="1" as="geometry">
            <mxPoint x="547" y="541" as="sourcePoint" />
            <mxPoint x="381" y="320" as="targetPoint" />
          </mxGeometry>
        </mxCell>
      </root>
    </mxGraphModel>
  </diagram>
</mxfile>
